<?xml version="1.0" encoding="UTF-8" standalone="no"?>
<!-- Created with Inkscape (http://www.inkscape.org/) -->

<svg
   xmlns:dc="http://purl.org/dc/elements/1.1/"
   xmlns:cc="http://creativecommons.org/ns#"
   xmlns:rdf="http://www.w3.org/1999/02/22-rdf-syntax-ns#"
   xmlns:svg="http://www.w3.org/2000/svg"
   xmlns="http://www.w3.org/2000/svg"
   xmlns:xlink="http://www.w3.org/1999/xlink"
   xmlns:sodipodi="http://sodipodi.sourceforge.net/DTD/sodipodi-0.dtd"
   xmlns:inkscape="http://www.inkscape.org/namespaces/inkscape"
   width="18"
   height="15"
   id="svg5085"
   version="1.1"
   inkscape:version="0.47 r22583"
   sodipodi:docname="repeat.svg">
  <defs
     id="defs5087">
    <inkscape:perspective
       sodipodi:type="inkscape:persp3d"
       inkscape:vp_x="0 : 526.18109 : 1"
       inkscape:vp_y="0 : 1000 : 0"
       inkscape:vp_z="744.09448 : 526.18109 : 1"
       inkscape:persp3d-origin="372.04724 : 350.78739 : 1"
       id="perspective5093" />
    <inkscape:perspective
       id="perspective5072"
       inkscape:persp3d-origin="0.5 : 0.33333333 : 1"
       inkscape:vp_z="1 : 0.5 : 1"
       inkscape:vp_y="0 : 1000 : 0"
       inkscape:vp_x="0 : 0.5 : 1"
       sodipodi:type="inkscape:persp3d" />
    <linearGradient
       inkscape:collect="always"
       xlink:href="#linearGradient3714-1-1"
       id="linearGradient4605-6"
       gradientUnits="userSpaceOnUse"
       gradientTransform="translate(-30.75,4.6249993)"
       x1="22.75"
       y1="14.395072"
       x2="22.75"
       y2="0.37239683" />
    <linearGradient
       id="linearGradient3714-1-1">
      <stop
         style="stop-color:#363636;stop-opacity:1;"
         offset="0"
         id="stop3716-9-8" />
      <stop
         style="stop-color:#000000;stop-opacity:1;"
         offset="1"
         id="stop3718-3-4" />
    </linearGradient>
    <linearGradient
       y2="0.37239683"
       x2="22.75"
       y1="14.395072"
       x1="22.75"
       gradientTransform="translate(-30.75,4.6249993)"
       gradientUnits="userSpaceOnUse"
       id="linearGradient5083"
       xlink:href="#linearGradient3714-1-1"
       inkscape:collect="always" />
    <inkscape:perspective
       id="perspective5147"
       inkscape:persp3d-origin="0.5 : 0.33333333 : 1"
       inkscape:vp_z="1 : 0.5 : 1"
       inkscape:vp_y="0 : 1000 : 0"
       inkscape:vp_x="0 : 0.5 : 1"
       sodipodi:type="inkscape:persp3d" />
    <linearGradient
       inkscape:collect="always"
       xlink:href="#linearGradient3714-18"
       id="linearGradient4036"
       x1="37.6875"
       y1="22"
       x2="37.6875"
       y2="10"
       gradientUnits="userSpaceOnUse" />
    <linearGradient
       inkscape:collect="always"
       id="linearGradient3714-18">
      <stop
         style="stop-color:#363636;stop-opacity:1;"
         offset="0"
         id="stop3716-8" />
      <stop
         style="stop-color:#000000;stop-opacity:1;"
         offset="1"
         id="stop3718-6" />
    </linearGradient>
    <linearGradient
       y2="10"
       x2="37.6875"
       y1="22"
       x1="37.6875"
       gradientUnits="userSpaceOnUse"
       id="linearGradient5158"
       xlink:href="#linearGradient3714-18"
       inkscape:collect="always" />
    <linearGradient
       gradientTransform="matrix(-0.4100229,0,0,0.5447147,78.029995,-3.8459034)"
       gradientUnits="userSpaceOnUse"
       xlink:href="#linearGradient3587-6-5-3"
       id="linearGradient2388"
       y2="38.279892"
       x2="159.68553"
       y1="14.403693"
       x1="159.68553" />
    <linearGradient
       id="linearGradient3587-6-5-3">
      <stop
         offset="0"
         style="stop-color:#000000;stop-opacity:1"
         id="stop3589-9-2-2" />
      <stop
         offset="1"
         style="stop-color:#363636;stop-opacity:1"
         id="stop3591-7-4-73" />
    </linearGradient>
    <inkscape:perspective
       id="perspective2839"
       inkscape:persp3d-origin="11 : 7.3333333 : 1"
       inkscape:vp_z="22 : 11 : 1"
       inkscape:vp_y="0 : 1000 : 0"
       inkscape:vp_x="0 : 11 : 1"
       sodipodi:type="inkscape:persp3d" />
  </defs>
  <sodipodi:namedview
     id="base"
     pagecolor="#ffffff"
     bordercolor="#666666"
     borderopacity="1.0"
     inkscape:pageopacity="0.0"
     inkscape:pageshadow="2"
     inkscape:zoom="5.6568542"
     inkscape:cx="-22.668051"
     inkscape:cy="25.194402"
     inkscape:document-units="px"
     inkscape:current-layer="layer1"
     showgrid="false"
     inkscape:window-width="1366"
     inkscape:window-height="721"
     inkscape:window-x="0"
     inkscape:window-y="24"
     inkscape:window-maximized="1" />
  <metadata
     id="metadata5090">
    <rdf:RDF>
      <cc:Work
         rdf:about="">
        <dc:format>image/svg+xml</dc:format>
        <dc:type
           rdf:resource="http://purl.org/dc/dcmitype/StillImage" />
        <dc:title />
      </cc:Work>
    </rdf:RDF>
  </metadata>
  <g
     inkscape:label="Layer 1"
     inkscape:groupmode="layer"
     id="layer1"
     transform="translate(0,-1037.3622)">
    <g
       transform="translate(-30,1029.3622)"
       id="g4150">
      <path
         style="opacity:0.6;fill:#ffffff;fill-opacity:1;fill-rule:nonzero;stroke:none"
         d="m 33,11 c -1.662,0 -3,1.115 -3,2.5 l 0,4.5 3,-1.5 0,-1.84375 C 33,14.286916 33.270584,14 33.59375,14 l 10.8125,0 C 44.729416,14 45,14.286916 45,14.65625 l 0,2.6875 C 45,17.713084 44.729416,18 44.40625,18 L 36,18 36,16 30,19.5 36,23 36,21.0625 36,21 l 9,0 c 1.662,0 3,-1.115 3,-2.5 l 0,-5 C 48,12.115 46.662,11 45,11 l -12,0 z"
         id="path4095" />
      <path
         id="rect3635"
         d="m 33,10 c -1.662,0 -3,1.115 -3,2.5 l 0,4.5 3,-1.5 0,-1.84375 C 33,13.286916 33.270584,13 33.59375,13 l 10.8125,0 C 44.729416,13 45,13.286916 45,13.65625 l 0,2.6875 C 45,16.713084 44.729416,17 44.40625,17 L 36,17 36,15 30,18.5 36,22 36,20.0625 36,20 l 9,0 c 1.662,0 3,-1.115 3,-2.5 l 0,-5 C 48,11.115 46.662,10 45,10 l -12,0 z"
         style="opacity:0.7;fill:url(#linearGradient5158);fill-opacity:1;fill-rule:nonzero;stroke:none" />
    </g>
  </g>
</svg>
